<svg width="55" height="55" viewBox="0 0 55 55" fill="none" xmlns="http://www.w3.org/2000/svg">
<path d="M51.5625 20.6251H44.6875C44.6875 20.1692 44.5064 19.7321 44.1841 19.4097C43.8618 19.0874 43.4246 18.9063 42.9688 18.9063H29.2188C28.7629 18.9063 28.3257 19.0874 28.0034 19.4097C27.6811 19.7321 27.5 20.1692 27.5 20.6251H13.75V11.172C13.75 10.4882 14.0216 9.83244 14.5051 9.34894C14.9886 8.86545 15.6444 8.59383 16.3281 8.59383C16.9324 8.59136 17.5196 8.79372 17.9941 9.1679C18.4685 9.54208 18.8022 10.066 18.9406 10.6542C19.035 11.0971 19.3005 11.4849 19.6792 11.7332C20.0579 11.9815 20.5194 12.0703 20.9632 11.9803C21.4071 11.8903 21.7975 11.6287 22.0495 11.2525C22.3016 10.8762 22.395 10.4157 22.3094 9.97098C22.0176 8.60331 21.2635 7.37791 20.1741 6.50101C19.0848 5.62411 17.7266 5.14924 16.3281 5.15633C14.7327 5.15633 13.2026 5.79012 12.0744 6.91826C10.9463 8.04641 10.3125 9.57651 10.3125 11.172V20.6251H3.4375C2.98166 20.6251 2.54449 20.8062 2.22216 21.1285C1.89983 21.4508 1.71875 21.888 1.71875 22.3438V30.9376C1.72216 34.1274 2.99083 37.1856 5.24639 39.4412C7.50195 41.6967 10.5602 42.9654 13.75 42.9688V46.4063C13.75 46.8622 13.9311 47.2993 14.2534 47.6217C14.5757 47.944 15.0129 48.1251 15.4688 48.1251C15.9246 48.1251 16.3618 47.944 16.6841 47.6217C17.0064 47.2993 17.1875 46.8622 17.1875 46.4063V42.9688H37.8125V46.4063C37.8125 46.8622 37.9936 47.2993 38.3159 47.6217C38.6382 47.944 39.0754 48.1251 39.5312 48.1251C39.9871 48.1251 40.4243 47.944 40.7466 47.6217C41.0689 47.2993 41.25 46.8622 41.25 46.4063V42.9688C44.4398 42.9654 47.4981 41.6967 49.7536 39.4412C52.0092 37.1856 53.2778 34.1274 53.2812 30.9376V22.3438C53.2812 21.888 53.1002 21.4508 52.7778 21.1285C52.4555 20.8062 52.0183 20.6251 51.5625 20.6251ZM41.25 22.3438V29.2188H30.9375V22.3438H41.25ZM49.8438 30.9376C49.8438 32.0661 49.6215 33.1836 49.1896 34.2263C48.7577 35.2689 48.1247 36.2163 47.3267 37.0143C46.5287 37.8123 45.5813 38.4453 44.5387 38.8772C43.496 39.309 42.3785 39.5313 41.25 39.5313H13.75C11.4708 39.5313 9.28494 38.6259 7.6733 37.0143C6.06166 35.4026 5.15625 33.2168 5.15625 30.9376V24.0626H27.5V30.9376C27.5 31.3934 27.6811 31.8306 28.0034 32.1529C28.3257 32.4752 28.7629 32.6563 29.2188 32.6563H42.9688C43.4246 32.6563 43.8618 32.4752 44.1841 32.1529C44.5064 31.8306 44.6875 31.3934 44.6875 30.9376V24.0626H49.8438V30.9376Z" fill="#F8E6D0"/>
</svg>
