<svg width="55" height="55" viewBox="0 0 55 55" fill="none" xmlns="http://www.w3.org/2000/svg">
<path d="M46.4062 15.4688H6.875V10.3125C6.875 9.85666 6.69392 9.41949 6.37159 9.09716C6.04926 8.77483 5.61209 8.59375 5.15625 8.59375C4.70041 8.59375 4.26324 8.77483 3.94091 9.09716C3.61858 9.41949 3.4375 9.85666 3.4375 10.3125V44.6875C3.4375 45.1433 3.61858 45.5805 3.94091 45.9028C4.26324 46.2252 4.70041 46.4062 5.15625 46.4062C5.61209 46.4062 6.04926 46.2252 6.37159 45.9028C6.69392 45.5805 6.875 45.1433 6.875 44.6875V37.8125H51.5625V44.6875C51.5625 45.1433 51.7436 45.5805 52.0659 45.9028C52.3882 46.2252 52.8254 46.4062 53.2812 46.4062C53.7371 46.4062 54.1743 46.2252 54.4966 45.9028C54.8189 45.5805 55 45.1433 55 44.6875V24.0625C55 21.7833 54.0946 19.5974 52.4829 17.9858C50.8713 16.3742 48.6855 15.4688 46.4062 15.4688ZM6.875 18.9062H22.3438V34.375H6.875V18.9062ZM25.7812 34.375V18.9062H46.4062C47.7738 18.9062 49.0853 19.4495 50.0523 20.4165C51.0193 21.3835 51.5625 22.695 51.5625 24.0625V34.375H25.7812Z" fill="#F8E6D0"/>
</svg>
