<svg width="55" height="55" viewBox="0 0 55 55" fill="none" xmlns="http://www.w3.org/2000/svg">
<path d="M50.5957 46.58C45.7489 44.2167 42.9688 39.1507 42.9688 32.6581V28.9456C42.9706 28.2569 42.7647 27.5836 42.378 27.0137C41.9913 26.4437 41.4417 26.0037 40.801 25.7509L35.4493 23.6325C35.0282 23.4641 34.6908 23.1361 34.5105 22.72C34.3302 22.3039 34.3217 21.8334 34.4868 21.411L39.0672 10.0243C39.3781 9.27697 39.5349 8.47457 39.5284 7.66517C39.5218 6.85576 39.3519 6.05601 39.029 5.31381C38.706 4.5716 38.2366 3.9022 37.6488 3.3457C37.061 2.7892 36.367 2.35704 35.6082 2.07511C34.1304 1.53363 32.4997 1.58981 31.0626 2.23171C29.6256 2.87361 28.4955 4.05063 27.9125 5.51261C27.9117 5.52118 27.9117 5.52982 27.9125 5.53839L23.3965 16.9724C23.2286 17.3954 22.8997 17.7345 22.482 17.9153C22.0643 18.0962 21.592 18.104 21.1686 17.937L15.7073 15.7134C15.0776 15.4582 14.3861 15.3968 13.7213 15.5368C13.0565 15.6769 12.4486 16.0122 11.9754 16.4997C7.45083 21.1511 5.15629 26.5866 5.15629 32.656C5.1444 38.8669 7.54637 44.8395 11.8551 49.3128C12.0166 49.4816 12.2107 49.6157 12.4257 49.7069C12.6407 49.7981 12.872 49.8446 13.1055 49.8435H49.8438C50.2323 49.8431 50.6092 49.7111 50.913 49.4691C51.2169 49.227 51.4298 48.8892 51.517 48.5106C51.6042 48.1321 51.5606 47.7351 51.3933 47.3845C51.226 47.0339 50.9449 46.7503 50.5957 46.58ZM14.4247 18.906L19.8838 21.1189C20.514 21.371 21.1877 21.4962 21.8664 21.4873C22.545 21.4785 23.2153 21.3357 23.8386 21.0672C24.462 20.7988 25.0262 20.4099 25.499 19.9229C25.9717 19.4358 26.3436 18.8603 26.5934 18.2292L31.1051 6.84249C31.6551 5.5298 33.1397 4.85089 34.4202 5.33859C34.7466 5.45971 35.0451 5.6457 35.2978 5.88535C35.5504 6.125 35.7518 6.41333 35.8899 6.73296C36.0281 7.05258 36.1 7.39688 36.1014 7.74507C36.1029 8.09327 36.0338 8.43814 35.8983 8.7589L31.3006 20.1435C30.7973 21.4134 30.8184 22.8311 31.3594 24.0855C31.9003 25.3398 32.9169 26.3282 34.186 26.8337L39.5313 28.9456V32.656C39.5313 32.7269 39.5313 32.7978 39.5313 32.8708L11.9819 21.8515C12.7143 20.8046 13.5313 19.8194 14.4247 18.906ZM24.7372 46.406C22.1782 43.9513 20.3654 40.8232 19.5079 37.3825C19.3884 36.9474 19.1025 36.5766 18.712 36.3504C18.3215 36.1242 17.8577 36.0607 17.4207 36.1735C16.9838 36.2864 16.6087 36.5665 16.3766 36.9535C16.1444 37.3405 16.0738 37.8033 16.1799 38.2419C16.9296 41.2019 18.2714 43.9791 20.1245 46.406H13.8446C10.4547 42.6293 8.58411 37.7308 8.59379 32.656C8.57277 29.9671 9.13957 27.3062 10.2545 24.8593L39.86 36.7015C40.5045 40.5687 42.1288 43.8944 44.5629 46.4038L24.7372 46.406Z" fill="#F8E6D0"/>
</svg>
