<svg width="55" height="55" viewBox="0 0 55 55" fill="none" xmlns="http://www.w3.org/2000/svg">
<path d="M46.4062 12.0312H37.8125V10.3125C37.8125 8.94498 37.2693 7.63347 36.3023 6.66648C35.3353 5.6995 34.0238 5.15625 32.6562 5.15625H22.3438C20.9762 5.15625 19.6647 5.6995 18.6977 6.66648C17.7307 7.63347 17.1875 8.94498 17.1875 10.3125V12.0312H8.59375C7.68207 12.0313 6.80773 12.3934 6.16307 13.0381C5.51841 13.6827 5.15625 14.5571 5.15625 15.4688V42.9688C5.15625 43.8804 5.51841 44.7548 6.16307 45.3994C6.80773 46.0441 7.68207 46.4062 8.59375 46.4062H46.4062C47.3179 46.4062 48.1923 46.0441 48.8369 45.3994C49.4816 44.7548 49.8438 43.8804 49.8438 42.9688V15.4688C49.8438 14.5571 49.4816 13.6827 48.8369 13.0381C48.1923 12.3934 47.3179 12.0313 46.4062 12.0312ZM20.625 10.3125C20.625 9.85666 20.8061 9.41949 21.1284 9.09716C21.4507 8.77483 21.8879 8.59375 22.3438 8.59375H32.6562C33.1121 8.59375 33.5493 8.77483 33.8716 9.09716C34.1939 9.41949 34.375 9.85666 34.375 10.3125V12.0312H20.625V10.3125ZM46.4062 15.4688V30.9375H8.59375V15.4688H46.4062ZM46.4062 42.9688H8.59375V34.375H46.4062V42.9688Z" fill="#F8E6D0"/>
</svg>
