<svg width="55" height="55" viewBox="0 0 55 55" fill="none" xmlns="http://www.w3.org/2000/svg">
<path d="M17.3071 13.4016C15.5028 13.4016 13.7724 14.1183 12.4965 15.3942C11.2207 16.67 10.5039 18.4004 10.5039 20.2047C10.5039 22.009 11.2207 23.7395 12.4965 25.0153C13.7724 26.2911 15.5028 27.0079 17.3071 27.0079C19.1114 27.0079 20.8418 26.2911 22.1177 25.0153C23.3935 23.7395 24.1103 22.009 24.1103 20.2047C24.1103 18.4004 23.3935 16.67 22.1177 15.3942C20.8418 14.1183 19.1114 13.4016 17.3071 13.4016ZM7.10237 20.2047C7.10237 17.4983 8.17751 14.9027 10.0913 12.9889C12.005 11.0751 14.6006 10 17.3071 10C20.0136 10 22.6092 11.0751 24.5229 12.9889C26.4367 14.9027 27.5118 17.4983 27.5118 20.2047C27.5118 22.9112 26.4367 25.5068 24.5229 27.4206C22.6092 29.3343 20.0136 30.4095 17.3071 30.4095C14.6006 30.4095 12.005 29.3343 10.0913 27.4206C8.17751 25.5068 7.10237 22.9112 7.10237 20.2047ZM10.5039 37.2126C9.15072 37.2126 7.85291 37.7502 6.89603 38.7071C5.93915 39.664 5.40158 40.9618 5.40158 42.315C5.40158 42.7661 5.22239 43.1987 4.90343 43.5176C4.58447 43.8366 4.15187 44.0158 3.70079 44.0158C3.24971 44.0158 2.81711 43.8366 2.49815 43.5176C2.17919 43.1987 2 42.7661 2 42.315C2 40.0596 2.89595 37.8966 4.49075 36.3018C6.08555 34.707 8.24856 33.8111 10.5039 33.8111H24.1103C26.3657 33.8111 28.5287 34.707 30.1235 36.3018C31.7183 37.8966 32.6142 40.0596 32.6142 42.315C32.6142 42.7661 32.435 43.1987 32.1161 43.5176C31.7971 43.8366 31.3645 44.0158 30.9134 44.0158C30.4623 44.0158 30.0297 43.8366 29.7108 43.5176C29.3918 43.1987 29.2126 42.7661 29.2126 42.315C29.2126 40.9618 28.6751 39.664 27.7182 38.7071C26.7613 37.7502 25.4635 37.2126 24.1103 37.2126H10.5039Z" fill="#F8E6D0"/>
<path d="M36.6929 16.4016C34.8885 16.4016 33.1581 17.1183 31.8823 18.3942C30.6065 19.67 29.8897 21.4004 29.8897 23.2047C29.8897 25.009 30.6065 26.7395 31.8823 28.0153C33.1581 29.2911 34.8885 30.0079 36.6929 30.0079C38.4972 30.0079 40.2276 29.2911 41.5034 28.0153C42.7793 26.7395 43.496 25.009 43.496 23.2047C43.496 21.4004 42.7793 19.67 41.5034 18.3942C40.2276 17.1183 38.4972 16.4016 36.6929 16.4016ZM26.4881 23.2047C26.4881 20.4983 27.5633 17.9027 29.477 15.9889C31.3908 14.0751 33.9864 13 36.6929 13C39.3993 13 41.9949 14.0751 43.9087 15.9889C45.8225 17.9027 46.8976 20.4983 46.8976 23.2047C46.8976 25.9112 45.8225 28.5068 43.9087 30.4206C41.9949 32.3343 39.3993 33.4095 36.6929 33.4095C33.9864 33.4095 31.3908 32.3343 29.477 30.4206C27.5633 28.5068 26.4881 25.9112 26.4881 23.2047ZM29.8897 40.2126C28.5365 40.2126 27.2387 40.7502 26.2818 41.7071C25.3249 42.664 24.7873 43.9618 24.7873 45.315C24.7873 45.7661 24.6081 46.1987 24.2892 46.5176C23.9702 46.8366 23.5376 47.0158 23.0865 47.0158C22.6355 47.0158 22.2029 46.8366 21.8839 46.5176C21.5649 46.1987 21.3857 45.7661 21.3857 45.315C21.3857 43.0596 22.2817 40.8966 23.8765 39.3018C25.4713 37.707 27.6343 36.8111 29.8897 36.8111H43.496C45.7514 36.8111 47.9144 37.707 49.5092 39.3018C51.104 40.8966 52 43.0596 52 45.315C52 45.7661 51.8208 46.1987 51.5018 46.5176C51.1829 46.8366 50.7502 47.0158 50.2992 47.0158C49.8481 47.0158 49.4155 46.8366 49.0965 46.5176C48.7776 46.1987 48.5984 45.7661 48.5984 45.315C48.5984 43.9618 48.0608 42.664 47.1039 41.7071C46.1471 40.7502 44.8492 40.2126 43.496 40.2126H29.8897Z" fill="#F8E6D0"/>
</svg>
