<svg width="55" height="55" viewBox="0 0 55 55" fill="none" xmlns="http://www.w3.org/2000/svg">
<path d="M51.3863 20.8954C51.1714 20.2348 50.7658 19.6526 50.2206 19.2221C49.6754 18.7916 49.015 18.5321 48.3226 18.4763L35.6468 17.4536L30.7527 5.61787C30.488 4.97294 30.0375 4.42129 29.4585 4.03305C28.8795 3.6448 28.1981 3.4375 27.501 3.4375C26.8039 3.4375 26.1225 3.6448 25.5435 4.03305C24.9645 4.42129 24.514 4.97294 24.2493 5.61787L19.3595 17.4515L6.67727 18.4763C5.98371 18.5349 5.32288 18.7969 4.77757 19.2295C4.23227 19.6621 3.82674 20.246 3.6118 20.908C3.39686 21.57 3.38207 22.2807 3.56927 22.9511C3.75648 23.6215 4.13736 24.2218 4.66419 24.6767L14.3322 33.019L11.3867 45.4929C11.2219 46.1705 11.2623 46.8819 11.5025 47.5366C11.7428 48.1913 12.1722 48.7598 12.7362 49.1701C13.3002 49.5803 13.9734 49.8137 14.6703 49.8406C15.3672 49.8676 16.0563 49.6868 16.6503 49.3214L27.4999 42.644L38.356 49.3214C38.9502 49.6825 39.638 49.8598 40.3327 49.8308C41.0274 49.8018 41.698 49.568 42.2601 49.1586C42.8222 48.7493 43.2506 48.1828 43.4914 47.5305C43.7322 46.8782 43.7746 46.1692 43.6132 45.4929L40.657 33.0169L50.3249 24.6745C50.856 24.2204 51.2404 23.6188 51.4293 22.9461C51.6183 22.2733 51.6033 21.5596 51.3863 20.8954ZM48.0906 22.0706L37.6277 31.094C37.3891 31.2997 37.2116 31.567 37.1146 31.8667C37.0176 32.1664 37.0048 32.487 37.0777 32.7935L40.2745 46.2856C40.2828 46.3042 40.2836 46.3253 40.2768 46.3445C40.27 46.3637 40.2561 46.3795 40.238 46.3888C40.1993 46.4188 40.1886 46.4124 40.1564 46.3888L28.4001 39.1593C28.1294 38.9928 27.8178 38.9047 27.4999 38.9047C27.1821 38.9047 26.8705 38.9928 26.5997 39.1593L14.8435 46.3931C14.8113 46.4124 14.8027 46.4188 14.7618 46.3931C14.7437 46.3838 14.7298 46.368 14.723 46.3488C14.7162 46.3296 14.7171 46.3085 14.7253 46.2899L17.9222 32.7977C17.9951 32.4913 17.9823 32.1707 17.8853 31.871C17.7883 31.5713 17.6108 31.304 17.3722 31.0983L6.90931 22.0749C6.88353 22.0534 6.85989 22.0341 6.88138 21.9675C6.90286 21.9009 6.92005 21.9095 6.95228 21.9052L20.6851 20.7966C21.0001 20.7696 21.3015 20.6562 21.5562 20.4689C21.8109 20.2817 22.0091 20.0278 22.1288 19.7352L27.4183 6.92841C27.4355 6.89189 27.4419 6.8747 27.4935 6.8747C27.545 6.8747 27.5515 6.89189 27.5687 6.92841L32.871 19.7352C32.9919 20.0279 33.1913 20.2815 33.4472 20.4681C33.7031 20.6546 34.0056 20.7668 34.3212 20.7923L48.054 21.9009C48.0863 21.9009 48.1056 21.9009 48.1249 21.9632C48.1443 22.0255 48.1249 22.0491 48.0906 22.0706Z" fill="#F8E6D0"/>
</svg>
