<svg width="55" height="55" viewBox="0 0 55 55" fill="none" xmlns="http://www.w3.org/2000/svg">
<path d="M15.4688 18.9058V8.59332C15.4688 8.13747 15.6498 7.7003 15.9722 7.37798C16.2945 7.05565 16.7317 6.87457 17.1875 6.87457C17.6434 6.87457 18.0805 7.05565 18.4029 7.37798C18.7252 7.7003 18.9063 8.13747 18.9063 8.59332V18.9058C18.9063 19.3617 18.7252 19.7988 18.4029 20.1212C18.0805 20.4435 17.6434 20.6246 17.1875 20.6246C16.7317 20.6246 16.2945 20.4435 15.9722 20.1212C15.6498 19.7988 15.4688 19.3617 15.4688 18.9058ZM46.4063 8.59332V48.1246C46.4063 48.5804 46.2252 49.0176 45.9029 49.3399C45.5805 49.6622 45.1434 49.8433 44.6875 49.8433C44.2317 49.8433 43.7945 49.6622 43.4722 49.3399C43.1498 49.0176 42.9688 48.5804 42.9688 48.1246V37.8121H32.6563C32.2004 37.8121 31.7633 37.631 31.4409 37.3087C31.1186 36.9863 30.9375 36.5492 30.9375 36.0933C31.0173 31.9762 31.5373 27.8795 32.4887 23.873C34.5899 15.174 38.5731 9.34312 44.0108 7.01421C44.2721 6.90226 44.5572 6.85689 44.8404 6.88218C45.1236 6.90747 45.3961 7.00262 45.6335 7.1591C45.8709 7.31559 46.0657 7.52852 46.2006 7.77883C46.3355 8.02913 46.4061 8.30899 46.4063 8.59332ZM42.9688 11.5796C36.0572 16.8584 34.7037 29.7168 34.4395 34.3746H42.9688V11.5796ZM25.7576 8.31187C25.724 8.08619 25.6457 7.86947 25.5274 7.67435C25.4091 7.47923 25.2531 7.30962 25.0686 7.17541C24.8841 7.0412 24.6746 6.94508 24.4526 6.89266C24.2305 6.84023 24.0002 6.83255 23.7751 6.87007C23.5501 6.90758 23.3347 6.98953 23.1416 7.11115C22.9486 7.23276 22.7816 7.3916 22.6506 7.57841C22.5196 7.76521 22.427 7.97624 22.3784 8.19918C22.3298 8.42212 22.326 8.65251 22.3674 8.87691L24.0625 19.0412C24.0625 20.8645 23.3382 22.6132 22.0489 23.9025C20.7596 25.1918 19.0109 25.9162 17.1875 25.9162C15.3642 25.9162 13.6155 25.1918 12.3262 23.9025C11.0368 22.6132 10.3125 20.8645 10.3125 19.0412L12.0055 8.87691C12.0468 8.65251 12.0431 8.42212 11.9945 8.19918C11.9458 7.97624 11.8533 7.76521 11.7223 7.57841C11.5912 7.3916 11.4243 7.23276 11.2313 7.11115C11.0382 6.98953 10.8228 6.90758 10.5978 6.87007C10.3727 6.83255 10.1424 6.84023 9.92031 6.89266C9.69824 6.94508 9.48882 7.0412 9.30428 7.17541C9.11974 7.30962 8.96378 7.47923 8.84548 7.67435C8.72718 7.86947 8.64891 8.08619 8.61525 8.31187L6.8965 18.6244C6.8818 18.7175 6.87461 18.8116 6.87502 18.9058C6.87845 21.3417 7.74281 23.698 9.31536 25.5584C10.8879 27.4187 13.0674 28.6633 15.4688 29.0722V48.1246C15.4688 48.5804 15.6498 49.0176 15.9722 49.3399C16.2945 49.6622 16.7317 49.8433 17.1875 49.8433C17.6434 49.8433 18.0805 49.6622 18.4029 49.3399C18.7252 49.0176 18.9063 48.5804 18.9063 48.1246V29.0722C21.3076 28.6633 23.4871 27.4187 25.0597 25.5584C26.6322 23.698 27.4966 21.3417 27.5 18.9058C27.4997 18.8115 27.4918 18.7174 27.4764 18.6244L25.7576 8.31187Z" fill="#F8E6D0"/>
</svg>
