<svg width="55" height="55" viewBox="0 0 55 55" fill="none" xmlns="http://www.w3.org/2000/svg">
<path d="M51.5625 22.81V15.4688C51.5625 14.5571 51.2003 13.6827 50.5557 13.0381C49.911 12.3934 49.0367 12.0313 48.125 12.0312H6.875C5.96332 12.0313 5.08898 12.3934 4.44432 13.0381C3.79966 13.6827 3.4375 14.5571 3.4375 15.4688V22.81C2.91577 23.1112 2.48236 23.5442 2.1807 24.0657C1.87905 24.5872 1.71974 25.1788 1.71875 25.7812V36.0938C1.71875 37.0054 2.08091 37.8798 2.72557 38.5244C3.37023 39.1691 4.24457 39.5312 5.15625 39.5312H6.875V42.9688C6.875 43.4246 7.05608 43.8618 7.37841 44.1841C7.70074 44.5064 8.13791 44.6875 8.59375 44.6875C9.04959 44.6875 9.48676 44.5064 9.80909 44.1841C10.1314 43.8618 10.3125 43.4246 10.3125 42.9688V39.5312H44.6875V42.9688C44.6875 43.4246 44.8686 43.8618 45.1909 44.1841C45.5132 44.5064 45.9504 44.6875 46.4062 44.6875C46.8621 44.6875 47.2993 44.5064 47.6216 44.1841C47.9439 43.8618 48.125 43.4246 48.125 42.9688V39.5312H49.8438C50.7554 39.5312 51.6298 39.1691 52.2744 38.5244C52.9191 37.8798 53.2812 37.0054 53.2812 36.0938V25.7812C53.2803 25.1788 53.1209 24.5872 52.8193 24.0657C52.5176 23.5442 52.0842 23.1112 51.5625 22.81ZM48.125 22.3438H46.4062C45.4946 22.3438 44.6202 22.7059 43.9756 23.3506C43.3309 23.9952 42.9688 24.8696 42.9688 25.7812V29.2188H29.2188V15.4688H48.125V22.3438ZM25.7812 15.4688V29.2188H12.0312V25.7812C12.0312 24.8696 11.6691 23.9952 11.0244 23.3506C10.3798 22.7059 9.50543 22.3438 8.59375 22.3438H6.875V15.4688H25.7812ZM49.8438 36.0938H5.15625V25.7812H8.59375V30.9375C8.59375 31.3933 8.77483 31.8305 9.09716 32.1528C9.41949 32.4752 9.85666 32.6562 10.3125 32.6562H44.6875C45.1433 32.6562 45.5805 32.4752 45.9028 32.1528C46.2252 31.8305 46.4062 31.3933 46.4062 30.9375V25.7812H49.8438V36.0938Z" fill="#F8E6D0"/>
</svg>
