<svg width="55" height="55" viewBox="0 0 55 55" fill="none" xmlns="http://www.w3.org/2000/svg">
<path d="M27.5 5.15625C23.0808 5.15625 18.7609 6.46669 15.0865 8.92185C11.4121 11.377 8.54822 14.8666 6.85708 18.9494C5.16593 23.0322 4.72345 27.5248 5.58559 31.8591C6.44773 36.1933 8.57576 40.1746 11.7006 43.2994C14.8254 46.4243 18.8067 48.5523 23.141 49.4144C27.4752 50.2766 31.9678 49.8341 36.0506 48.1429C40.1334 46.4518 43.623 43.5879 46.0782 39.9135C48.5333 36.2391 49.8438 31.9192 49.8438 27.5C49.8375 21.576 47.4814 15.8964 43.2925 11.7075C39.1036 7.51858 33.424 5.16251 27.5 5.15625ZM27.5 46.4063C23.7607 46.4063 20.1054 45.2974 16.9963 43.22C13.8871 41.1425 11.4639 38.1898 10.0329 34.7351C8.60194 31.2804 8.22754 27.479 8.95704 23.8116C9.68654 20.1441 11.4872 16.7754 14.1313 14.1313C16.7754 11.4872 20.1441 9.68653 23.8116 8.95703C27.479 8.22753 31.2805 8.60193 34.7351 10.0329C38.1898 11.4639 41.1425 13.8871 43.22 16.9963C45.2974 20.1054 46.4063 23.7607 46.4063 27.5C46.4006 32.5125 44.4068 37.3181 40.8625 40.8625C37.3181 44.4068 32.5125 46.4006 27.5 46.4063ZM29.2188 17.1875H22.3438C21.8879 17.1875 21.4507 17.3686 21.1284 17.6909C20.8061 18.0132 20.625 18.4504 20.625 18.9063V36.0938C20.625 36.5496 20.8061 36.9868 21.1284 37.3091C21.4507 37.6314 21.8879 37.8125 22.3438 37.8125C22.7996 37.8125 23.2368 37.6314 23.5591 37.3091C23.8814 36.9868 24.0625 36.5496 24.0625 36.0938V32.6563H29.2188C31.27 32.6563 33.2373 31.8414 34.6878 30.3909C36.1383 28.9404 36.9531 26.9732 36.9531 24.9219C36.9531 22.8706 36.1383 20.9033 34.6878 19.4528C33.2373 18.0024 31.27 17.1875 29.2188 17.1875ZM29.2188 29.2188H24.0625V20.625H29.2188C30.3584 20.625 31.4513 21.0777 32.2571 21.8835C33.0629 22.6893 33.5156 23.7823 33.5156 24.9219C33.5156 26.0615 33.0629 27.1544 32.2571 27.9602C31.4513 28.766 30.3584 29.2188 29.2188 29.2188Z" fill="#F8E6D0"/>
</svg>
