<svg width="55" height="55" viewBox="0 0 55 55" fill="none" xmlns="http://www.w3.org/2000/svg">
<path d="M5.15625 39.5312H49.8438C50.2996 39.5312 50.7368 39.3502 51.0591 39.0278C51.3814 38.7055 51.5625 38.2683 51.5625 37.8125C51.5625 37.3567 51.3814 36.9195 51.0591 36.5972C50.7368 36.2748 50.2996 36.0938 49.8438 36.0938H48.125V32.6562C48.1187 27.4856 46.173 22.5055 42.6724 18.7001C39.1717 14.8948 34.3709 12.5411 29.2188 12.1043V8.59375H32.6562C33.1121 8.59375 33.5493 8.41267 33.8716 8.09034C34.1939 7.76801 34.375 7.33084 34.375 6.875C34.375 6.41916 34.1939 5.98199 33.8716 5.65966C33.5493 5.33733 33.1121 5.15625 32.6562 5.15625H22.3438C21.8879 5.15625 21.4507 5.33733 21.1284 5.65966C20.8061 5.98199 20.625 6.41916 20.625 6.875C20.625 7.33084 20.8061 7.76801 21.1284 8.09034C21.4507 8.41267 21.8879 8.59375 22.3438 8.59375H25.7812V12.1043C20.6291 12.5411 15.8283 14.8948 12.3276 18.7001C8.827 22.5055 6.88126 27.4856 6.875 32.6562V36.0938H5.15625C4.70041 36.0938 4.26324 36.2748 3.94091 36.5972C3.61858 36.9195 3.4375 37.3567 3.4375 37.8125C3.4375 38.2683 3.61858 38.7055 3.94091 39.0278C4.26324 39.3502 4.70041 39.5312 5.15625 39.5312ZM10.3125 32.6562C10.3125 28.0978 12.1233 23.7261 15.3466 20.5029C18.5699 17.2796 22.9416 15.4688 27.5 15.4688C32.0584 15.4688 36.4301 17.2796 39.6534 20.5029C42.8767 23.7261 44.6875 28.0978 44.6875 32.6562V36.0938H10.3125V32.6562ZM51.5625 44.6875C51.5625 45.1433 51.3814 45.5805 51.0591 45.9028C50.7368 46.2252 50.2996 46.4062 49.8438 46.4062H5.15625C4.70041 46.4062 4.26324 46.2252 3.94091 45.9028C3.61858 45.5805 3.4375 45.1433 3.4375 44.6875C3.4375 44.2317 3.61858 43.7945 3.94091 43.4722C4.26324 43.1498 4.70041 42.9688 5.15625 42.9688H49.8438C50.2996 42.9688 50.7368 43.1498 51.0591 43.4722C51.3814 43.7945 51.5625 44.2317 51.5625 44.6875Z" fill="#F8E6D0"/>
</svg>
