<svg width="55" height="56" viewBox="0 0 55 56" fill="none" xmlns="http://www.w3.org/2000/svg">
<path d="M44.6875 17.6875H37.8125V12.5312C37.8125 9.79621 36.726 7.17318 34.792 5.23921C32.8581 3.30524 30.235 2.21875 27.5 2.21875C24.765 2.21875 22.1419 3.30524 20.208 5.23921C18.274 7.17318 17.1875 9.79621 17.1875 12.5312V17.6875H10.3125C9.40082 17.6875 8.52648 18.0497 7.88182 18.6943C7.23716 19.339 6.875 20.2133 6.875 21.125V45.1875C6.875 46.0992 7.23716 46.9735 7.88182 47.6182C8.52648 48.2628 9.40082 48.625 10.3125 48.625H44.6875C45.5992 48.625 46.4735 48.2628 47.1182 47.6182C47.7628 46.9735 48.125 46.0992 48.125 45.1875V21.125C48.125 20.2133 47.7628 19.339 47.1182 18.6943C46.4735 18.0497 45.5992 17.6875 44.6875 17.6875ZM20.625 12.5312C20.625 10.7079 21.3493 8.9592 22.6386 7.66989C23.928 6.38058 25.6766 5.65625 27.5 5.65625C29.3234 5.65625 31.072 6.38058 32.3614 7.66989C33.6507 8.9592 34.375 10.7079 34.375 12.5312V17.6875H20.625V12.5312ZM44.6875 45.1875H10.3125V21.125H44.6875V45.1875Z" fill="#F8E6D0"/>
</svg>
