<svg width="55" height="55" viewBox="0 0 55 55" fill="none" xmlns="http://www.w3.org/2000/svg">
<path d="M2.53933 44.223L2.53932 44.223L2.53924 44.2216C2.49623 43.4257 2.42124 42.9316 2.28128 42.6167C2.21284 42.4627 2.13031 42.3553 2.03068 42.2766C1.93039 42.1974 1.80587 42.1418 1.64546 42.1017C1.4633 42.0562 1.30578 41.9906 1.17678 41.88C1.04667 41.7683 0.955346 41.6192 0.891004 41.4233C0.765465 41.041 0.734375 40.4506 0.734375 39.5312C0.734375 38.6124 0.765343 38.0209 0.896909 37.6376C0.964491 37.4408 1.06068 37.2916 1.19746 37.1804C1.33205 37.071 1.49653 37.0061 1.68764 36.9609C1.8725 36.9094 1.99545 36.8527 2.08827 36.754C2.18224 36.6541 2.25897 36.4963 2.31595 36.214C2.43103 35.6438 2.45312 34.6385 2.45312 32.7852C2.45312 30.9426 2.47399 29.8961 2.62232 29.193C2.69739 28.8371 2.80575 28.5647 2.96212 28.3191C3.11686 28.076 3.31546 27.8643 3.56328 27.6271C3.84984 27.319 4.19047 27.0444 4.51025 26.8459C4.67069 26.7464 4.82779 26.6647 4.97192 26.6077C5.11424 26.5513 5.25191 26.5156 5.37109 26.5156C5.41916 26.5156 5.45327 26.5047 5.4831 26.4819C5.51548 26.457 5.55364 26.4097 5.59205 26.3173C5.67034 26.1292 5.7326 25.7978 5.77824 25.2341C5.86905 24.1123 5.89062 22.1309 5.89062 18.6914V18.6696C5.89062 14.7361 5.89062 12.7329 6.02576 11.5869C6.09377 11.0102 6.19714 10.6378 6.3591 10.3412C6.52029 10.0461 6.735 9.83537 7.00141 9.57959L8.03092 8.50718L8.06782 8.46875H8.12109H27.5H46.8789H46.9322L46.9691 8.50718L47.9986 9.57956C48.265 9.83535 48.4797 10.046 48.6409 10.3412C48.8029 10.6378 48.9062 11.0102 48.9742 11.5869C49.1094 12.7329 49.1094 14.736 49.1094 18.6695V18.6914C49.1094 22.1309 49.131 24.1123 49.2218 25.2341C49.2674 25.7978 49.3297 26.1292 49.4079 26.3173C49.4464 26.4097 49.4845 26.457 49.5169 26.4819C49.5467 26.5047 49.5808 26.5156 49.6289 26.5156C49.7481 26.5156 49.8858 26.5513 50.0281 26.6077C50.1722 26.6647 50.3293 26.7464 50.4897 26.8459C50.8095 27.0444 51.1502 27.319 51.4367 27.6271C51.6845 27.8643 51.8831 28.076 52.0379 28.3191C52.1942 28.5647 52.3026 28.8371 52.3777 29.193C52.526 29.8961 52.5469 30.9426 52.5469 32.7852C52.5469 34.6385 52.569 35.6438 52.6841 36.214C52.741 36.4963 52.8178 36.6541 52.9117 36.754C53.0046 36.8527 53.1275 36.9094 53.3124 36.961C53.5035 37.0061 53.668 37.071 53.8025 37.1804C53.9393 37.2916 54.0355 37.4408 54.1031 37.6376C54.2347 38.0209 54.2656 38.6124 54.2656 39.5312C54.2656 40.4506 54.2345 41.041 54.109 41.4233C54.0447 41.6192 53.9533 41.7683 53.8232 41.88C53.6942 41.9906 53.5367 42.0562 53.3545 42.1017C53.1941 42.1418 53.0696 42.1974 52.9693 42.2766C52.8697 42.3553 52.7872 42.4627 52.7187 42.6167C52.5788 42.9316 52.5038 43.4257 52.4608 44.2216L52.4607 44.223L52.3318 46.1995L52.3241 46.3164H52.207H50.2734H48.3398H48.2417L48.2184 46.2211L47.7458 44.2875L47.2964 42.4492H27.5H7.70359L7.25424 44.2875L6.78158 46.2211L6.75828 46.3164H6.66016H4.72656H2.79297H2.67586L2.66823 46.1995L2.53933 44.223ZM5.37565 43.2568L5.37569 43.2564C5.41856 42.8491 5.40346 42.5881 5.33677 42.4325C5.30541 42.3594 5.26418 42.3134 5.2135 42.2838C5.16108 42.2533 5.0881 42.2344 4.98438 42.2344C4.88579 42.2344 4.80762 42.2565 4.74402 42.2965C4.68013 42.3366 4.62294 42.3997 4.57463 42.494C4.47574 42.6871 4.42188 42.9955 4.42188 43.4414C4.42188 43.8392 4.4851 44.1148 4.57163 44.2814C4.65819 44.4481 4.75095 44.4812 4.81731 44.4723C4.898 44.4614 5.016 44.3823 5.12969 44.1733C5.24044 43.9696 5.33383 43.6646 5.37565 43.2568ZM49.6243 43.2564L49.6243 43.2568C49.6662 43.6646 49.7596 43.9696 49.8703 44.1733C49.984 44.3823 50.102 44.4614 50.1827 44.4723C50.2491 44.4812 50.3418 44.4481 50.4284 44.2814C50.5149 44.1148 50.5781 43.8392 50.5781 43.4414C50.5781 42.9955 50.5243 42.6871 50.4254 42.494C50.3771 42.3997 50.3199 42.3366 50.256 42.2965C50.1924 42.2565 50.1142 42.2344 50.0156 42.2344C49.9119 42.2344 49.8389 42.2533 49.7865 42.2838C49.7358 42.3134 49.6946 42.3594 49.6632 42.4325C49.5965 42.5881 49.5814 42.8491 49.6243 43.2564ZM47.1406 18.9922C47.1406 16.3073 47.0976 14.3555 47.012 13.033C46.9691 12.3714 46.9158 11.8705 46.8525 11.5154C46.8209 11.3377 46.7873 11.1997 46.7525 11.0976C46.7184 10.9975 46.6871 10.9443 46.6651 10.9202C46.6627 10.9188 46.6565 10.9156 46.6447 10.9111C46.6232 10.9029 46.5918 10.8935 46.5489 10.8835C46.4634 10.8635 46.3435 10.8435 46.1894 10.8237C45.8818 10.7843 45.4493 10.7474 44.9081 10.7132C43.8263 10.6449 42.3185 10.5878 40.5257 10.5422C36.9406 10.4509 32.2206 10.4053 27.5 10.4053C22.7794 10.4053 18.0594 10.4509 14.4743 10.5422C12.6815 10.5878 11.1737 10.6449 10.0919 10.7132C9.55075 10.7474 9.11821 10.7843 8.81062 10.8237C8.65651 10.8435 8.53656 10.8635 8.4511 10.8835C8.40824 10.8935 8.37681 10.9029 8.35527 10.9111C8.34353 10.9156 8.33735 10.9188 8.33491 10.9202C8.31286 10.9443 8.28158 10.9975 8.24747 11.0976C8.21271 11.1997 8.17913 11.3377 8.14748 11.5154C8.08423 11.8705 8.03088 12.3714 7.98802 13.033C7.90235 14.3555 7.85938 16.3073 7.85938 18.9922C7.85938 22.6705 7.87034 24.573 7.98211 25.5577C8.03864 26.0557 8.11869 26.2876 8.21119 26.3989C8.29063 26.4945 8.39212 26.5156 8.59375 26.5156C8.78299 26.5156 8.90795 26.4964 8.99689 26.4504C9.07865 26.4081 9.14429 26.3354 9.19567 26.1906C9.24872 26.0411 9.28288 25.8245 9.30286 25.5088C9.32273 25.1949 9.32812 24.7929 9.32812 24.2773C9.32812 23.2894 9.37049 22.6276 9.53241 22.1028C9.69642 21.5712 9.98008 21.1888 10.4391 20.7513C10.6851 20.4946 10.8943 20.2872 11.1684 20.1287C11.4447 19.969 11.7785 19.8635 12.2712 19.7923C13.2493 19.651 14.8939 19.6406 18.0469 19.6406C21.1998 19.6406 22.8445 19.651 23.8226 19.7923C24.3152 19.8635 24.649 19.969 24.9254 20.1287C25.1995 20.2872 25.4087 20.4946 25.6547 20.7513C26.1137 21.1888 26.3973 21.5712 26.5613 22.1028C26.7233 22.6276 26.7656 23.2894 26.7656 24.2773C26.7656 24.7929 26.771 25.1949 26.7909 25.5088C26.8109 25.8245 26.845 26.0411 26.8981 26.1906C26.9495 26.3354 27.0151 26.4081 27.0969 26.4504C27.1858 26.4964 27.3108 26.5156 27.5 26.5156C27.6892 26.5156 27.8142 26.4964 27.9031 26.4504C27.9849 26.4081 28.0505 26.3354 28.1019 26.1906C28.155 26.0411 28.1891 25.8245 28.2091 25.5088C28.229 25.1949 28.2344 24.7929 28.2344 24.2773C28.2344 23.2894 28.2767 22.6276 28.4387 22.1028C28.6027 21.5712 28.8863 21.1888 29.3453 20.7513C29.5913 20.4946 29.8005 20.2872 30.0746 20.1287C30.351 19.969 30.6848 19.8635 31.1774 19.7923C32.1555 19.651 33.8002 19.6406 36.9531 19.6406C40.1061 19.6406 41.7507 19.651 42.7288 19.7923C43.2215 19.8635 43.5553 19.969 43.8316 20.1287C44.1057 20.2872 44.3149 20.4946 44.5609 20.7513C45.0199 21.1888 45.3036 21.5712 45.4676 22.1028C45.6295 22.6276 45.6719 23.2894 45.6719 24.2773C45.6719 24.7929 45.6773 25.1949 45.6971 25.5088C45.7171 25.8245 45.7513 26.0411 45.8043 26.1906C45.8557 26.3354 45.9213 26.4081 46.0031 26.4504C46.092 26.4964 46.217 26.5156 46.4062 26.5156C46.6079 26.5156 46.7094 26.4945 46.7888 26.3989C46.8813 26.2876 46.9614 26.0557 47.0179 25.5577C47.1297 24.573 47.1406 22.6705 47.1406 18.9922ZM24.7969 24.5781C24.7969 24.0267 24.7438 23.4655 24.6542 23.0069C24.6094 22.7775 24.5559 22.5763 24.4965 22.416C24.4359 22.2525 24.3736 22.1442 24.3179 22.0884C24.2947 22.0652 24.2329 22.0297 24.1124 21.9905C23.9972 21.953 23.8446 21.9171 23.6578 21.8833C23.2846 21.8159 22.7868 21.7592 22.2038 21.7137C21.0385 21.6228 19.5434 21.5771 18.0469 21.5771C16.5504 21.5771 15.0553 21.6228 13.89 21.7137C13.307 21.7592 12.8092 21.8159 12.436 21.8833C12.2492 21.9171 12.0966 21.953 11.9814 21.9905C11.8609 22.0297 11.7991 22.0652 11.7759 22.0884C11.7201 22.1442 11.6579 22.2525 11.5973 22.416C11.5379 22.5763 11.4844 22.7775 11.4396 23.0069C11.35 23.4655 11.2969 24.0267 11.2969 24.5781V26.5156H18.0469H24.7969V24.5781ZM43.7031 24.5781C43.7031 24.0267 43.65 23.4655 43.5604 23.0069C43.5156 22.7775 43.4621 22.5763 43.4027 22.416C43.3421 22.2525 43.2799 22.1442 43.2241 22.0884C43.2009 22.0652 43.1391 22.0297 43.0186 21.9905C42.9034 21.953 42.7508 21.9171 42.564 21.8833C42.1908 21.8159 41.693 21.7592 41.11 21.7137C39.9447 21.6228 38.4496 21.5771 36.9531 21.5771C35.4566 21.5771 33.9615 21.6228 32.7962 21.7137C32.2132 21.7592 31.7154 21.8159 31.3422 21.8833C31.1554 21.9171 31.0028 21.953 30.8876 21.9905C30.7671 22.0297 30.7053 22.0652 30.6821 22.0884C30.6264 22.1442 30.5641 22.2525 30.5035 22.416C30.4441 22.5763 30.3906 22.7775 30.3458 23.0069C30.2562 23.4655 30.2031 24.0267 30.2031 24.5781V26.5156H36.9531H43.7031V24.5781ZM50.5781 33.1719C50.5781 31.9925 50.5352 31.0096 50.4501 30.2806C50.4075 29.9159 50.3547 29.618 50.2926 29.3922C50.2307 29.1671 50.1642 29.0323 50.1042 28.9686C50.1012 28.9671 50.0941 28.9639 50.0813 28.9595C50.0563 28.9509 50.0198 28.9413 49.9701 28.9311C49.8711 28.9109 49.7314 28.8907 49.5519 28.8708C49.1934 28.8313 48.6866 28.7943 48.0513 28.7601C46.7812 28.6918 45.0046 28.6347 42.8895 28.5891C38.6596 28.4978 33.08 28.4521 27.5 28.4521C21.92 28.4521 16.3404 28.4978 12.1105 28.5891C9.99536 28.6347 8.21878 28.6918 6.94869 28.7601C6.31336 28.7943 5.80658 28.8313 5.44815 28.8708C5.2686 28.8907 5.12892 28.9109 5.02993 28.9311C4.98024 28.9413 4.94368 28.9509 4.91867 28.9595C4.90584 28.9639 4.89885 28.9671 4.89583 28.9686C4.83579 29.0323 4.76935 29.1671 4.70744 29.3922C4.64533 29.618 4.59253 29.9159 4.54994 30.2806C4.4648 31.0096 4.42188 31.9925 4.42188 33.1719V36.8281H27.5H50.5781V33.1719ZM27.5 40.2656C39.8122 40.2656 46.0395 40.2656 49.1896 40.1583C50.7697 40.1044 51.5601 40.0237 51.9551 39.9081C52.1516 39.8506 52.2258 39.791 52.2577 39.7443C52.2898 39.6974 52.2969 39.6403 52.2969 39.5312C52.2969 39.4222 52.2898 39.3651 52.2577 39.3182C52.2258 39.2715 52.1516 39.2119 51.9551 39.1544C51.5601 39.0388 50.7697 38.9581 49.1896 38.9042C46.0395 38.7969 39.8122 38.7969 27.5 38.7969C15.1878 38.7969 8.96048 38.7969 5.81041 38.9042C4.23034 38.9581 3.43992 39.0388 3.04494 39.1544C2.84844 39.2119 2.77425 39.2715 2.74228 39.3182C2.71018 39.3651 2.70312 39.4222 2.70312 39.5312C2.70312 39.6403 2.71018 39.6974 2.74228 39.7443C2.77425 39.791 2.84844 39.8506 3.04494 39.9081C3.43992 40.0237 4.23034 40.1044 5.81041 40.1583C8.96048 40.2656 15.1878 40.2656 27.5 40.2656Z" fill="#F8E6D0" stroke="#F8E6D0" stroke-width="0.25"/>
</svg>
