<svg width="25" height="18" viewBox="0 0 25 18" fill="none" xmlns="http://www.w3.org/2000/svg">
<path d="M24.7081 1.70708L8.70806 17.7071C8.61518 17.8001 8.50489 17.8738 8.3835 17.9241C8.2621 17.9745 8.13197 18.0004 8.00056 18.0004C7.86914 18.0004 7.73901 17.9745 7.61762 17.9241C7.49622 17.8738 7.38593 17.8001 7.29306 17.7071L0.293056 10.7071C0.105415 10.5194 0 10.2649 0 9.99958C0 9.73422 0.105415 9.47972 0.293056 9.29208C0.480697 9.10444 0.735192 8.99902 1.00056 8.99902C1.26592 8.99902 1.52042 9.10444 1.70806 9.29208L8.00056 15.5858L23.2931 0.292079C23.4807 0.104438 23.7352 -0.000976564 24.0006 -0.000976562C24.2659 -0.000976561 24.5204 0.104438 24.7081 0.292079C24.8957 0.47972 25.0011 0.734215 25.0011 0.999579C25.0011 1.26494 24.8957 1.51944 24.7081 1.70708Z" fill="#F8E6D0"/>
</svg>
