<svg width="55" height="55" viewBox="0 0 55 55" fill="none" xmlns="http://www.w3.org/2000/svg">
<path d="M30.078 43.8281C30.078 44.338 29.9268 44.8365 29.6435 45.2604C29.3602 45.6844 28.9575 46.0148 28.4864 46.21C28.0153 46.4051 27.497 46.4562 26.9969 46.3567C26.4968 46.2572 26.0374 46.0117 25.6768 45.6511C25.3163 45.2905 25.0707 44.8312 24.9712 44.3311C24.8718 43.831 24.9228 43.3126 25.118 42.8415C25.3131 42.3704 25.6435 41.9678 26.0675 41.6845C26.4915 41.4012 26.9899 41.25 27.4998 41.25C28.1836 41.25 28.8394 41.5216 29.3228 42.0051C29.8063 42.4886 30.078 43.1443 30.078 43.8281ZM50.935 18.6914C44.3275 13.2717 36.0457 10.3097 27.4998 10.3097C18.9539 10.3097 10.6722 13.2717 4.06468 18.6914C3.89018 18.8347 3.74562 19.011 3.63925 19.2102C3.53288 19.4094 3.46678 19.6276 3.44474 19.8523C3.42269 20.0771 3.44513 20.3039 3.51077 20.52C3.5764 20.7361 3.68395 20.9371 3.82728 21.1116C3.9706 21.2861 4.1469 21.4307 4.34609 21.537C4.54529 21.6434 4.76348 21.7095 4.98822 21.7315C5.4421 21.7761 5.89507 21.6385 6.24749 21.349C12.2399 16.4349 19.7501 13.7493 27.4998 13.7493C35.2495 13.7493 42.7597 16.4349 48.7522 21.349C49.1046 21.6385 49.5576 21.7761 50.0115 21.7315C50.4653 21.687 50.8829 21.464 51.1724 21.1116C51.4619 20.7592 51.5995 20.3062 51.5549 19.8523C51.5104 19.3984 51.2874 18.9808 50.935 18.6914ZM44.0428 26.3763C39.3363 22.6501 33.5093 20.6227 27.5063 20.6227C21.5033 20.6227 15.6763 22.6501 10.9698 26.3763C10.6125 26.6595 10.3824 27.073 10.33 27.5259C10.2776 27.9788 10.4073 28.4339 10.6905 28.7912C10.9737 29.1484 11.3872 29.3786 11.84 29.431C12.2929 29.4833 12.748 29.3537 13.1053 29.0705C17.2042 25.826 22.2787 24.0607 27.5063 24.0607C32.7339 24.0607 37.8083 25.826 41.9073 29.0705C42.0841 29.2107 42.2869 29.3148 42.504 29.3766C42.7211 29.4385 42.9483 29.457 43.1725 29.431C43.3968 29.4051 43.6137 29.3352 43.811 29.2255C44.0082 29.1157 44.1819 28.9681 44.3221 28.7912C44.4623 28.6143 44.5664 28.4115 44.6282 28.1944C44.6901 27.9773 44.7086 27.7502 44.6827 27.5259C44.6567 27.3017 44.5869 27.0847 44.4771 26.8875C44.3673 26.6902 44.2197 26.5165 44.0428 26.3763ZM37.1119 34.0592C34.3201 32.0302 30.9575 30.9373 27.5063 30.9373C24.055 30.9373 20.6924 32.0302 17.9006 34.0592C17.532 34.3275 17.285 34.7314 17.2141 35.1818C17.1432 35.6323 17.2541 36.0924 17.5225 36.4611C17.7909 36.8298 18.1947 37.0767 18.6452 37.1476C19.0956 37.2185 19.5558 37.1076 19.9244 36.8392C22.1277 35.2369 24.782 34.3738 27.5063 34.3738C30.2306 34.3738 32.8849 35.2369 35.0881 36.8392C35.2707 36.9721 35.4776 37.0677 35.6971 37.1207C35.9166 37.1736 36.1444 37.1827 36.3674 37.1476C36.5904 37.1125 36.8044 37.0338 36.997 36.916C37.1896 36.7982 37.3572 36.6437 37.4901 36.4611C37.623 36.2786 37.7186 36.0716 37.7715 35.8521C37.8244 35.6326 37.8336 35.4049 37.7985 35.1818C37.7634 34.9588 37.6847 34.7448 37.5669 34.5522C37.4491 34.3596 37.2945 34.192 37.1119 34.0592Z" fill="#F8E6D0" stroke="#F8E6D0"/>
</svg>
