<svg width="130" height="130" viewBox="0 0 130 130" fill="none" xmlns="http://www.w3.org/2000/svg">
<g clip-path="url(#clip0_140_133)">
<rect width="130" height="130" rx="65" fill="#1D0027"/>
<path d="M86 52.2C86 52.7486 85.6676 53.4779 85.068 54.2972C84.7331 54.7548 84.3557 55.1868 84 55.5667C83.6443 55.1868 83.2669 54.7548 82.932 54.2972C82.3324 53.4779 82 52.7486 82 52.2C82 50.9232 82.9552 50 84 50C85.0448 50 86 50.9232 86 52.2Z" stroke="#FFED00" stroke-width="2"/>
<circle cx="84" cy="52" r="2" stroke="#FFED00" stroke-width="2"/>
<path d="M48 52.2C48 52.7486 47.6676 53.4779 47.068 54.2972C46.7331 54.7548 46.3557 55.1868 46 55.5667C45.6443 55.1868 45.2669 54.7548 44.932 54.2972C44.3324 53.4779 44 52.7486 44 52.2C44 50.9232 44.9552 50 46 50C47.0448 50 48 50.9232 48 52.2Z" stroke="#FFED00" stroke-width="2"/>
<circle cx="46" cy="52" r="2" stroke="#FFED00" stroke-width="2"/>
<rect x="41" y="86" width="48" height="4" fill="#FFED00"/>
<rect x="41" y="78" width="48" height="4" fill="#FFED00"/>
<path d="M63.666 61.6016C65.9733 63.6651 67.8192 66.1924 69.083 69.0181C70.3468 71.8439 71 74.9045 71 78" stroke="#FFED00" stroke-width="4"/>
<path d="M59 78C59 74.9065 59.6524 71.8477 60.9147 69.0234C62.1769 66.1991 64.0206 63.6727 66.3254 61.6093" stroke="#FFED00" stroke-width="4"/>
<path d="M51 78C51 72.7339 52.3862 67.5606 55.0192 63C57.6523 58.4394 61.4394 54.6523 66 52.0192" stroke="#FFED00" stroke-width="4"/>
<circle cx="34" cy="60" r="4" stroke="#FFED00" stroke-width="4"/>
<path fill-rule="evenodd" clip-rule="evenodd" d="M39.409 62.6016C38.812 63.8408 37.8015 64.8434 36.5566 65.4304C37.4276 66.5083 38.1872 67.6775 38.8207 68.9207C40.2536 71.7329 41.0006 74.8443 41.0006 78.0006H45.0006C45.0006 74.2131 44.1042 70.4794 42.3847 67.1048C41.5624 65.491 40.5631 63.9812 39.409 62.6016Z" fill="#FFED00"/>
<circle cx="65" cy="46" r="5" stroke="#FFED00" stroke-width="4"/>
<circle cx="96" cy="60" r="4" stroke="#FFED00" stroke-width="4"/>
<path fill-rule="evenodd" clip-rule="evenodd" d="M90.5915 62.6016C89.4374 63.9812 88.4381 65.491 87.6158 67.1048C85.8964 70.4794 85 74.2131 85 78.0006H89C89 74.8443 89.747 71.7329 91.1799 68.9207C91.8133 67.6775 92.5729 66.5083 93.4439 65.4304C92.199 64.8434 91.1886 63.8408 90.5915 62.6016Z" fill="#FFED00"/>
<path d="M64.1639 52.1145C68.68 54.7601 72.4254 58.5412 75.028 63.0822C77.6307 67.6231 79 72.766 79 78" stroke="#FFED00" stroke-width="4"/>
<path fill-rule="evenodd" clip-rule="evenodd" d="M84.009 58.0137C79.4721 63.6867 77 70.7349 77 78H81C81 72.1716 82.8183 66.5027 86.1804 61.7745L84.009 58.0137Z" fill="#FFED00"/>
<path fill-rule="evenodd" clip-rule="evenodd" d="M43.8203 61.7766C44.9613 63.3814 45.9328 65.1063 46.7158 66.9242C48.2227 70.4226 49 74.1918 49 78.001H53C53 73.6476 52.1117 69.34 50.3895 65.3418C49.255 62.708 47.7744 60.2449 45.9917 58.0156L43.8203 61.7766Z" fill="#FFED00"/>
</g>
<defs>
<clipPath id="clip0_140_133">
<rect width="130" height="130" fill="white"/>
</clipPath>
</defs>
</svg>
