<svg width="63" height="62" viewBox="0 0 63 62" fill="none" xmlns="http://www.w3.org/2000/svg">
<path d="M17.9922 36.3691H28.9596V46.842H17.9922V36.3691Z" fill="#596584"/>
<path d="M45.9487 51.4891V46.6776C43.5599 46.2161 41.7479 44.1186 41.7479 41.6023C41.7479 39.0859 43.5599 36.9884 45.9487 36.5269V31.7054H41.5008C41.4909 31.7054 41.4802 31.7113 41.4713 31.7113C41.4576 31.7113 41.4466 31.7065 41.4329 31.7054H36.3338H36.3222H35.6867V37.7635C35.6867 38.3077 35.2468 38.7472 34.703 38.7472C34.1588 38.7472 33.7193 38.3073 33.7193 37.7635V31.7054L22.4524 31.7051C22.4493 31.7051 22.4455 31.7071 22.4425 31.7071C22.4387 31.7071 22.4335 31.7051 22.4298 31.7051H12.2081H12.2061H12.203H8.4668V36.5275C10.8504 36.989 12.6576 39.0865 12.6576 41.6019C12.6576 44.1173 10.8504 46.2148 8.4668 46.6763V51.4888H33.7201V45.4386C33.7201 44.8945 34.16 44.455 34.7038 44.455C35.248 44.455 35.6875 44.8948 35.6875 45.4386V51.4888L45.9487 51.4891ZM30.9276 47.8226C30.9276 48.3667 30.4867 48.8062 29.9439 48.8062H17.0089C16.4658 48.8062 16.0252 48.3664 16.0252 47.8226L16.0249 35.3812C16.0249 34.8371 16.4658 34.3976 17.0086 34.3976H29.9435C30.4867 34.3976 30.9272 34.8374 30.9272 35.3812L30.9276 47.8226Z" fill="#596584"/>
<path d="M50.6936 26.016C49.9971 26.016 49.3016 25.8732 48.6435 25.5871C47.3774 25.0381 46.4026 24.0269 45.8978 22.7399C45.3873 21.458 45.4089 20.0492 45.9569 18.7793C46.3731 17.8151 47.0569 17.0195 47.9242 16.4684L46.1603 12L36.6185 15.7688L38.8409 21.3969C39.0406 21.9026 38.7928 22.4732 38.2871 22.6729C38.1691 22.7192 38.0462 22.7418 37.9261 22.7418C37.5346 22.7418 37.1648 22.5058 37.0114 22.1191L34.789 16.491L11.2969 25.7684L12.8718 29.741H20.993L19.6768 26.4059C19.4771 25.9002 19.7249 25.3295 20.2306 25.1299L32.2609 20.3791C32.7656 20.1794 33.3372 20.4272 33.5369 20.9329L37.0174 29.7421H40.0217L39.832 29.2611C39.6323 28.7553 39.88 28.1847 40.3858 27.9851C40.8895 27.7864 41.4621 28.0331 41.6618 28.5389L42.137 29.7428H46.931C47.4752 29.7428 47.9147 30.1837 47.9147 30.7265V32.576L53.4279 30.3989L51.665 25.9257C51.3421 25.9854 51.0172 26.0166 50.6927 26.0166L50.6936 26.016Z" fill="#596584"/>
<path d="M32.0725 22.5703L21.8711 26.5988L23.1118 29.7401H34.9057L32.0725 22.5703Z" fill="#596584"/>
</svg>
