<svg width="63" height="62" viewBox="0 0 63 62" fill="none" xmlns="http://www.w3.org/2000/svg">
<path d="M44.2371 28.4037V15.221C44.2371 12.86 42.3188 10.9908 40.0069 10.9908H34.7438V9.51501C34.7438 8.67884 34.0552 7.99024 33.2191 7.99024C32.3829 7.99024 31.6943 8.67887 31.6943 9.51501V10.9413L21.217 10.9417V9.51501C21.217 8.67884 20.5284 7.99023 19.6923 7.99023C18.8561 7.99023 18.1671 8.67886 18.1671 9.51501V10.9413L12.9041 10.9417C10.5431 10.9417 8.67383 12.86 8.67383 15.1719V38.1924C8.67383 40.5533 10.5922 42.4226 12.9041 42.4226H30.1694C30.9071 48.6697 36.2689 53.5885 42.7126 53.5885C49.6975 53.5885 55.3542 47.932 55.3542 40.9469C55.4033 34.5033 50.5334 29.1416 44.2375 28.4037L44.2371 28.4037ZM12.9037 13.9913H18.1671V15.4176C18.1671 16.2538 18.8558 16.9424 19.6919 16.9424C20.5281 16.9424 21.2167 16.2537 21.2167 15.4176V13.9913H31.6939V15.4176C31.6939 16.2538 32.3826 16.9424 33.2187 16.9424C34.0549 16.9424 34.7435 16.2537 34.7435 15.4176V13.9913H40.0069C40.6955 13.9913 41.2366 14.5324 41.2366 15.221V20.386H11.7232L11.7229 15.221C11.7229 14.5324 12.2639 13.9913 12.9035 13.9913H12.9037ZM11.7231 38.2415V23.3864H41.2365V28.4038C35.4814 29.0924 30.9068 33.6672 30.2182 39.4221L12.9036 39.4218C12.2641 39.4218 11.723 38.8807 11.723 38.2411L11.7231 38.2415ZM42.7614 50.5879C37.449 50.5879 33.1203 46.2592 33.1203 40.9469C33.1207 35.6345 37.4494 31.355 42.7614 31.355C48.0738 31.355 52.4024 35.6837 52.4024 40.9961C52.4024 46.3082 48.0737 50.5879 42.7614 50.5879Z" fill="#596584"/>
<path d="M46.6359 39.2723H43.9304V35.6322C43.9304 34.796 43.2418 34.1074 42.4056 34.1074C41.5695 34.1074 40.8809 34.796 40.8809 35.6322V40.7971C40.8809 41.6333 41.5695 42.3219 42.4056 42.3219H46.6359C47.4721 42.3219 48.1607 41.6333 48.1607 40.7971C48.1607 39.961 47.472 39.2724 46.6359 39.2724V39.2723Z" fill="#596584"/>
</svg>
